<svg aria-hidden="true" class="icon-cart-bag" xmlns="http://www.w3.org/2000/svg" xmlns:xlink="http://www.w3.org/1999/xlink" viewBox="0 0 19 19"><defs><style>.f0a54de9-8be3-4a49-bb87-3b05cd028bbf{fill:#fff;}.b6d485de-9366-4edc-92c9-d6e40eaa0311,.f0a54de9-8be3-4a49-bb87-3b05cd028bbf{fill-rule:evenodd;}.a952ba7e-dc12-4a84-bdc5-874ca2fa5b6c{mask:url(#bd59216d-c48b-44c8-9aa5-d0a97ae036cb);}</style><mask id="bd59216d-c48b-44c8-9aa5-d0a97ae036cb" x="0" y="0" width="19" height="19" maskUnits="userSpaceOnUse"><g id="a63ec1fd-7719-4a4b-bdd6-3563b63d4f97" data-name="bag-b"><polygon id="a81ee704-587a-4242-b36b-2df6ac693808" data-name="bag-a" class="f0a54de9-8be3-4a49-bb87-3b05cd028bbf" points="0 0 19 0 19 19 0 19 0 0"/></g></mask></defs><g id="b554dca4-001c-49aa-a4d4-b829a6ad8472" data-name="Layer 2"><g id="bcd66623-2739-4869-a212-46082990b83b" data-name="Layer 1"><g class="a952ba7e-dc12-4a84-bdc5-874ca2fa5b6c"><path class="b6d485de-9366-4edc-92c9-d6e40eaa0311" d="M.945,18.20833,4.6388,7.125h.90248V8.70833a.39583.39583,0,1,0,.79165,0V7.125h6.33321V8.70833a.39583.39583,0,1,0,.79165,0V7.125h.90348l3.69285,11.08333Zm5.388-15.04166c0-1.64034,1.39173-2.375,2.77078-2.375h.79165c1.37906,0,2.77078.73466,2.77078,2.375V6.33333H6.33293ZM18.97976,18.47908,15.0215,6.60408a.398.398,0,0,0-.37623-.27075H13.45779V3.16667C13.45779,1.30229,11.99245,0,9.89536,0H9.10371C7.00742,0,5.54128,1.30229,5.54128,3.16667V6.33333H4.35381a.39412.39412,0,0,0-.37445.27075L.0211,18.47908A.39448.39448,0,0,0,.39555,19h18.208a.39471.39471,0,0,0,.37623-.52092Z"/></g></g></g></svg>
