<svg xmlns="http://www.w3.org/2000/svg" xmlns:xlink="http://www.w3.org/1999/xlink" width="46" height="41" viewBox="0 0 46 41">
  <defs>
    <polygon id="group-12-a" points="0 .038 10.419 .038 10.419 10.243 0 10.243"/>
  </defs>
  <g fill="none" fill-rule="evenodd">
    <path fill="#FEFEFE" d="M28.7660393,24.3357094 C26.9350859,22.6785145 24.999671,21.2645397 23.6976048,20.3691598 C22.982003,19.8785971 22.019642,19.8752992 21.3040403,20.3691598 C20.0027966,21.2628908 18.0673817,22.6760411 16.2347832,24.3357094 C12.0966309,28.0771774 10,31.4731903 10,34.429758 C10,38.1761728 12.6937882,41 16.2685069,41 C17.7219188,41 19.3612226,40.2917759 20.5456669,39.1523513 C21.0745542,38.6428257 21.7876884,38.386414 22.4991775,38.386414 C23.2114891,38.386414 23.9246233,38.6428257 24.4543331,39.1523513 C25.6371323,40.2917759 27.2772587,41 28.7306705,41 C32.3053892,41 35,38.1761728 35,34.429758 C35,31.4731903 32.901724,28.0771774 28.7660393,24.3357094"/>
    <g transform="translate(0 15)">
      <mask id="group-12-b" fill="#fff">
        <use xlink:href="#group-12-a"/>
      </mask>
      <path fill="#FEFEFE" d="M8.28596154,1.74316154 C7.15126923,0.715930769 5.76188462,0.113469231 4.37165385,0.0440846154 C4.2845,0.0398538462 4.19819231,0.0381615385 4.11188462,0.0381615385 C2.85873077,0.0381615385 1.76296154,0.492546154 1.00480769,1.33193077 C0.1925,2.22631538 -0.144269231,3.4617 0.0562692308,4.80962308 C0.263576923,6.18716154 0.999726224,7.5097 2.13357692,8.53608462 C3.26911538,9.56331538 4.6585,10.1674692 6.04788462,10.2351615 C7.40596154,10.3079308 8.60411538,9.84593077 9.41642308,8.94985385 C11.1121154,7.07731538 10.6044231,3.84500769 8.28596154,1.74316154" mask="url(#group-12-b)"/>
    </g>
    <path fill="#FEFEFE" d="M41.8038271 15.006727C40.4694864 15.0747283 39.1367699 15.6651787 38.0468824 16.67193 35.8216276 18.7318723 35.3343455 21.8997386 36.9626798 23.7341156 38.5885776 25.572639 41.7282984 25.3835622 43.9519289 23.3294248 45.0401922 22.3235029 45.7467512 21.0273314 45.9457247 19.6772565 46.1382011 18.3562065 45.8149707 17.1454513 45.0361315 16.2680685 44.2572923 15.3881978 43.0983731 14.9387256 41.8038271 15.006727M19.6251372 5.99051512C18.9871503 3.5242336 17.6156843 1.48675941 15.9552721.538779786 15.3271637.180729928 14.6883536 0 14.0676541 0 13.7424866 0 13.424728.0494449804 13.1152015.148334941 10.5541987.975259613 9.32597102 4.95046554 10.3747391 9.00921643 11.012726 11.4754979 12.3833688 13.5138246 14.0429579 14.4609518 14.9995266 15.0082565 15.9832612 15.1395415 16.8846749 14.8513966 19.4440312 14.0244719 20.6747285 10.049266 19.6251372 5.99051512M31.8849813.14917417C31.575462.0502930059 31.2568876 0 30.9325509 0 30.3118659 0 29.6722476.180713852 29.044977.539584284 27.3846035 1.48662716 26.0131696 3.52477253 25.3751976 5.99083467 24.3248077 10.0483721 25.5562994 14.0232244 28.1155959 14.8500755 29.018635 15.1407521 30.0007002 15.0077739 30.9572466 14.4596654 32.6159737 13.513475 33.9874076 11.4744772 34.6253796 9.00926745 35.6741232 4.9508776 34.4451011.976025285 31.8849813.14917417"/>
  </g>
</svg>
