<svg xmlns="http://www.w3.org/2000/svg" xmlns:xlink="http://www.w3.org/1999/xlink" class="logo" viewBox="0 0 155 31">
  <defs>
    <polygon id="group-18-a" points=".081 .596 22.353 .596 22.353 22 .081 22"/>
    <polygon id="group-18-c" points=".063 .894 12.551 .894 12.551 30.544 .063 30.544"/>
    <polygon id="group-18-e" points=".121 .596 19.586 .596 19.586 22 .121 22"/>
  </defs>
  <g fill="none" fill-rule="evenodd">
    <path fill="#231F20" d="M17.7764156,10.4850667 C17.7764156,5.81784913 15.0193377,4.24778657 11.5278059,4.24778657 L11.2074065,4.24778657 L11.2074065,17.0462755 C11.6674671,17.1851021 12.1275278,17.2760005 12.6779575,17.2760005 C15.7554348,17.2760005 17.7764156,14.689529 17.7764156,10.4850667 L17.7764156,10.4850667 Z M14.6069262,31 L0,31 L0,29.9373155 C2.15899899,29.9373155 2.47939838,29.3836619 2.47939838,27.1178137 L2.47939838,6.88053359 C2.47939838,4.61633809 2.15899899,4.06268445 0,4.06268445 L0,3 L14.1468655,3 C20.4398382,3 26,5.35509385 26,10.5776178 C26,15.9835911 20.3478261,18.6626136 15.0193377,18.6626136 C13.3664055,18.6626136 12.3115521,18.523787 11.2074065,18.2940621 L11.2074065,27.1178137 C11.2074065,29.3836619 11.7134732,29.9373155 14.6069262,29.9373155 L14.6069262,31 Z"/>
    <g transform="translate(24 9)">
      <mask id="group-18-b" fill="#fff">
        <use xlink:href="#group-18-a"/>
      </mask>
      <path fill="#231F20" d="M10.1913333,10.8847571 C8.328,11.7571143 7.44133333,12.6294714 7.44133333,15.0181857 C7.44133333,16.8089 8.42133333,18.3252571 9.77133333,18.3252571 C10.098,18.3252571 10.5163333,18.2792571 10.983,17.8652571 L10.983,10.5167571 L10.1913333,10.8847571 Z M6.743,4.36261429 C4.64633333,4.36261429 2.923,5.51097143 1.75633333,8.17568571 L0.686333333,7.76168571 C2.08466667,3.81061429 5.298,0.595542857 10.5163333,0.595542857 C16.1546667,0.595542857 19.4163333,3.94861429 19.4163333,8.77204286 L19.4163333,17.6352571 C19.4163333,18.5092571 19.7896667,19.0612571 20.4896667,19.0612571 C20.9546667,19.0612571 21.188,18.8756143 21.653,18.2792571 L22.353,19.0136143 C21.468,20.4839714 19.4163333,22.0003286 16.5746667,22.0003286 C14.338,22.0003286 12.008,21.1739714 11.0763333,18.6472571 C10.0513333,20.5299714 7.81466667,22.0003286 5.34633333,22.0003286 C2.36466667,22.0003286 0.0813333333,20.1159714 0.0813333333,17.2212571 C0.0813333333,13.6858286 3.108,12.4011143 7.303,10.6547571 L10.983,9.14004286 L10.983,8.81804286 C10.983,6.38332857 9.58633333,4.36261429 6.743,4.36261429 L6.743,4.36261429 Z" mask="url(#group-18-b)"/>
    </g>
    <path fill="#231F20" d="M58.7996109 17.8280515L53.138282 31 52.953906 31 44.5318767 13.3605271C43.563903 11.2882021 43.1507034 10.9669752 42 10.9669752L42 10 53.4609398 10 53.4609398 10.9669752C52.7250823 10.9669752 52.3563304 11.059225 52.3563304 11.4727016 52.3563304 11.8400533 52.6312481 12.4396768 53.092188 13.406652L56.3599222 20.3155005 58.1098474 16.2153279 56.9574978 13.3605271C56.0833583 11.2882021 55.5318767 10.9669752 54.4717151 10.9669752L54.4717151 10 65.9771027 10 65.9771027 10.9669752C64.7819515 10.9669752 64.3210117 11.1053499 64.3210117 11.6572011 64.3210117 12.0262002 64.5514816 12.5780515 64.8280455 13.406652L67.4060162 20.5444776 69.9378928 14.1446501C70.3049985 13.1776749 70.5354684 12.4858017 70.5354684 12.0262002 70.5354684 11.059225 69.7074229 10.9669752 67.728674 10.9669752L67.728674 10 75 10 75 10.9669752C73.3883568 10.9669752 72.9735109 11.2882021 71.5923376 14.190775L64.3671057 31 64.1843759 31 58.7996109 17.8280515zM92.7764156 10.4850667C92.7764156 5.81784913 90.0193377 4.24778657 86.5278059 4.24778657L86.2074065 4.24778657 86.2074065 17.0462755C86.6674671 17.1851021 87.1275278 17.2760005 87.6779575 17.2760005 90.7554348 17.2760005 92.7764156 14.689529 92.7764156 10.4850667L92.7764156 10.4850667zM89.6069262 31L75 31 75 29.9373155C77.158999 29.9373155 77.4793984 29.3836619 77.4793984 27.1178137L77.4793984 6.88053359C77.4793984 4.61633809 77.158999 4.06268445 75 4.06268445L75 3 89.1468655 3C95.4398382 3 101 5.35509385 101 10.5776178 101 15.9835911 95.3478261 18.6626136 90.0193377 18.6626136 88.3664055 18.6626136 87.3115521 18.523787 86.2074065 18.2940621L86.2074065 27.1178137C86.2074065 29.3836619 86.7134732 29.9373155 89.6069262 29.9373155L89.6069262 31z"/>
    <g transform="translate(100)">
      <mask id="group-18-d" fill="#fff">
        <use xlink:href="#group-18-c"/>
      </mask>
      <path fill="#231F20" d="M0.0628333333,1.85118947 L0.0628333333,0.893452632 L10.7328333,0.893452632 L10.7328333,26.8029263 C10.7328333,29.0381895 10.8278333,29.5864 12.5511667,29.5864 L12.5511667,30.5441368 L0.5295,30.5441368 L0.5295,29.5864 C2.25283333,29.5864 2.34616667,29.0381895 2.34616667,26.8029263 L2.34616667,4.40461053 C2.34616667,2.17097895 1.78783333,1.85118947 0.0628333333,1.85118947" mask="url(#group-18-d)"/>
    </g>
    <g transform="translate(112 9)">
      <mask id="group-18-f" fill="#fff">
        <use xlink:href="#group-18-e"/>
      </mask>
      <path fill="#231F20" d="M7.88921538,7.66968571 L13.3976769,7.66968571 C13.3072154,4.27225714 12.2249077,2.02154286 10.5077538,2.02154286 C8.88267692,2.02154286 7.97967692,3.72025714 7.88921538,7.66968571 M10.5982154,22.0003286 C4.81836923,22.0003286 0.120830769,17.9589 0.120830769,11.8491143 C0.120830769,5.55697143 5.1786,0.595542857 10.8243692,0.595542857 C16.1535231,0.595542857 19.3148308,5.09861429 19.4052923,9.00204286 L7.88921538,9.00204286 C8.15898462,14.6961857 11.1409846,18.2332571 14.5268308,18.2332571 C16.2876,18.2332571 17.6445231,17.4529 18.8625231,15.6605429 L19.5862154,16.2125429 C17.5992923,20.0256143 14.2554462,22.0003286 10.5982154,22.0003286" mask="url(#group-18-f)"/>
    </g>
    <path fill="#231F20" d="M137.913597,31 L130,31 L130,30.0113882 C132.014401,30.0113882 132.90355,29.4455049 134.308439,27.5154383 L138.801072,21.2536691 L133.698928,13.0129922 C132.43637,10.9886118 132.014401,10.9886118 130.937709,10.9886118 L130.937709,10 L143.99866,10 L143.99866,10.9886118 C142.687542,10.9886118 142.078031,11.0829257 142.078031,11.552811 C142.078031,11.8812254 142.312458,12.305638 142.734427,13.0129922 L145.122237,16.9219665 L147.322505,13.4845617 C147.838245,12.7300505 148.070998,12.1641671 148.070998,11.7885957 C148.070998,11.1755554 147.463161,10.9886118 146.106832,10.9886118 L146.106832,10 L153.688881,10 L153.688881,10.9886118 C151.582384,10.9886118 150.505693,11.552811 149.194575,13.4845617 L146.011386,18.2861497 L151.723041,27.5154383 C152.987274,29.5398188 153.735767,30.0113882 155,30.0113882 L155,31 L141.798392,31 L141.798392,30.0113882 C142.968855,30.0113882 143.529806,29.8682332 143.529806,29.351191 C143.529806,28.9756195 143.203282,28.3642634 142.687542,27.5154383 L139.64501,22.6178523 L136.27428,27.5154383 C135.805425,28.1739514 135.572672,28.6926778 135.572672,29.0699334 C135.572672,29.7739193 136.368051,30.0113882 137.913597,30.0113882 L137.913597,31 Z"/>
  </g>
</svg>
